<mxfile host="65bd71144e" modified="2022-03-15T12:37:49.575Z" agent="5.0 (Windows NT 10.0; Win64; x64) AppleWebKit/537.36 (KHTML, like Gecko) Code/1.65.2 Chrome/91.0.4472.164 Electron/13.5.2 Safari/537.36" etag="nZAIIEOhTz6qwPKGRGB1" version="17.1.2" type="embed">
    <diagram id="HMvR1XA6kqxed0pQGpS2" name="ページ1">
        <mxGraphModel dx="1038" dy="324" grid="1" gridSize="10" guides="1" tooltips="1" connect="1" arrows="1" fold="1" page="1" pageScale="1" pageWidth="827" pageHeight="1169" math="0" shadow="0">
            <root>
                <mxCell id="0"/>
                <mxCell id="1" parent="0"/>
                <mxCell id="2" value="" style="dashed=0;outlineConnect=0;html=1;align=center;labelPosition=center;verticalLabelPosition=bottom;verticalAlign=top;shape=mxgraph.webicons.translate;gradientColor=#DFDEDE" parent="1" vertex="1">
                    <mxGeometry x="120" y="120" width="102.4" height="102.4" as="geometry"/>
                </mxCell>
                <mxCell id="3" value="" style="shape=image;html=1;verticalAlign=top;verticalLabelPosition=bottom;labelBackgroundColor=#ffffff;imageAspect=0;aspect=fixed;image=https://cdn4.iconfinder.com/data/icons/bold-purple-free-samples/32/Arrows_Refresh_Replace_Round_Circle-128.png" parent="1" vertex="1">
                    <mxGeometry x="107.2" y="250" width="128" height="128" as="geometry"/>
                </mxCell>
                <mxCell id="4" value="" style="shape=image;html=1;verticalAlign=top;verticalLabelPosition=bottom;labelBackgroundColor=#ffffff;imageAspect=0;aspect=fixed;image=https://cdn1.iconfinder.com/data/icons/unicons-line-vol-3/24/english-to-chinese-128.png" parent="1" vertex="1">
                    <mxGeometry x="222.4" y="210" width="128" height="128" as="geometry"/>
                </mxCell>
                <mxCell id="5" value="" style="shape=image;html=1;verticalAlign=top;verticalLabelPosition=bottom;labelBackgroundColor=#ffffff;imageAspect=0;aspect=fixed;image=https://cdn1.iconfinder.com/data/icons/unicons-line-vol-4/24/letter-japanese-a-128.png" parent="1" vertex="1">
                    <mxGeometry x="-29.999999999999996" y="200" width="128" height="128" as="geometry"/>
                </mxCell>
                <mxCell id="6" value="" style="sketch=0;aspect=fixed;html=1;points=[];align=center;image;fontSize=12;image=img/lib/mscae/Person.svg;" parent="1" vertex="1">
                    <mxGeometry x="150" y="410" width="37" height="50" as="geometry"/>
                </mxCell>
            </root>
        </mxGraphModel>
    </diagram>
</mxfile>